<?xml version="1.0" encoding="utf-8"?>
<!-- Generator: Adobe Illustrator 15.1.0, SVG Export Plug-In . SVG Version: 6.00 Build 0)  -->
<!DOCTYPE svg PUBLIC "-//W3C//DTD SVG 1.1//EN" "http://www.w3.org/Graphics/SVG/1.1/DTD/svg11.dtd">
<svg version="1.1" id="Layer_1" xmlns="http://www.w3.org/2000/svg" xmlns:xlink="http://www.w3.org/1999/xlink" x="0px" y="0px"
	 width="600px" height="117.721px" viewBox="0 0 600 117.721" enable-background="new 0 0 600 117.721" xml:space="preserve">
<g>
	<g>
		<circle cx="28" cy="56.006" r="28"/>
	</g>
	<g>
		<path d="M589,39.006v34h-34v-34H589 M600,28.006h-56v56h56V28.006L600,28.006z"/>
	</g>
	<g>
		<polygon points="27.621,57.992 27.149,54.02 299.396,21.655 299.643,21.687 548.564,54.022 548.049,57.989 299.374,25.686 		"/>
	</g>
	<g>
		<g>
			<g>
				<polygon points="272,0 272,56 289.812,56 296.129,41.333 296.129,56 303.463,56 303.463,41.333 309.781,56 328,56 328,0 				"/>
			</g>
			<g>
				<path d="M304.799,28.79h-9.508l-22.902,55.328l13.118,27.894h28.978l13.127-27.877L304.799,28.79z M312.381,108.736h-24.693
					L275.986,84.03l21.451-51.864h0.919v46.285c-1.14,0.592-1.926,1.771-1.926,3.149c0,1.971,1.595,3.57,3.564,3.57
					s3.575-1.599,3.575-3.57c0-1.378-0.797-2.557-1.938-3.149V32.167h0.918l21.475,51.869L312.381,108.736z"/>
				<path fill="#FFFFFF" d="M316.388,115.011h-32.785L269.11,84.195l24.176-58.405h13.521l24.083,58.425L316.388,115.011z
					 M289.586,105.736h20.893l10.268-21.78l-16.113-38.918v31.926c1.225,1.211,1.938,2.866,1.938,4.636
					c0,3.623-2.95,6.57-6.575,6.57c-3.62,0-6.564-2.947-6.564-6.57c0-1.77,0.708-3.423,1.926-4.632v-31.92l-16.09,38.901
					L289.586,105.736z M299.995,80.981l-0.256,0.133c-0.072,0.038-0.308,0.184-0.308,0.486c0,0.314,0.253,0.57,0.564,0.57
					c0.317,0,0.575-0.256,0.575-0.57c0-0.297-0.244-0.447-0.319-0.486L299.995,80.981z"/>
			</g>
			<g>
				<path d="M304.799,28h-9.508l-22.902,55.328l13.117,27.894h28.979l13.127-27.877L304.799,28z M312.381,107.946h-24.693
					L275.986,83.24l21.451-51.864h0.919v46.285c-1.14,0.592-1.926,1.771-1.926,3.149c0,1.971,1.595,3.568,3.564,3.568
					s3.575-1.598,3.575-3.568c0-1.379-0.797-2.558-1.938-3.149V31.376h0.918l21.475,51.869L312.381,107.946z"/>
				<path d="M314.802,111.722h-29.613l-13.346-28.381L294.957,27.5h10.177l0.127,0.31l22.896,55.548L314.802,111.722z
					 M285.823,110.722h28.344l12.898-27.39L304.464,28.5h-8.839l-22.69,54.815L285.823,110.722z M312.698,108.446h-25.327
					l-11.932-25.192l0.085-0.205l21.579-52.173h1.753v47.088l-0.27,0.14c-1.021,0.53-1.656,1.567-1.656,2.706
					c0,1.692,1.375,3.068,3.064,3.068c1.696,0,3.075-1.376,3.075-3.068c0-1.135-0.639-2.172-1.668-2.706l-0.27-0.14V30.876h1.752
					l21.688,52.382L312.698,108.446z M288.004,107.446h24.06l11.415-24.214l-21.262-51.355h-0.084V77.37
					c1.203,0.741,1.938,2.033,1.938,3.44c0,2.243-1.828,4.068-4.075,4.068c-2.241,0-4.064-1.825-4.064-4.068
					c0-1.41,0.73-2.702,1.926-3.44V31.876h-0.084l-21.239,51.35L288.004,107.446z"/>
			</g>
		</g>
		<g>
			<rect x="274.944" y="105.221" width="50.112" height="12"/>
			<path d="M325.557,117.721h-51.112v-13h51.112V117.721z M275.444,116.721h49.112v-11h-49.112V116.721z"/>
		</g>
	</g>
</g>
</svg>
