<?xml version="1.0" encoding="utf-8"?>
<!DOCTYPE svg PUBLIC "-//W3C//DTD SVG 1.1//EN" "http://www.w3.org/Graphics/SVG/1.1/DTD/svg11.dtd">
<svg version="1.1" id="Layer_1" xmlns="http://www.w3.org/2000/svg" xmlns:xlink="http://www.w3.org/1999/xlink" x="0px" y="0px"
	 width="176.75px" height="117.721px" viewBox="0 0 176.75 117.721" enable-background="new 0 0 176.75 117.721"
	 xml:space="preserve">
<g>
	<g>
		<g>
			<g>
				<polygon points="60.375,0 60.375,56 78.187,56 84.504,41.333 84.504,56 91.838,56 91.838,41.333 98.156,56 116.375,56 
					116.375,0 				"/>
			</g>
			<g>
				<path d="M93.174,28.79h-9.508L60.764,84.118l13.118,27.894h28.978l13.127-27.877L93.174,28.79z M100.756,108.736H76.063
					L64.361,84.03l21.451-51.864h0.919v46.285c-1.14,0.592-1.926,1.771-1.926,3.149c0,1.971,1.595,3.57,3.564,3.57
					s3.575-1.599,3.575-3.57c0-1.378-0.797-2.557-1.938-3.149V32.167h0.918L112.4,84.035L100.756,108.736z"/>
				<path fill="#FFFFFF" d="M104.763,115.011H71.978L57.485,84.195L81.661,25.79h13.521l24.083,58.425L104.763,115.011z
					 M77.961,105.736h20.893l10.268-21.78L93.008,45.038v31.926c1.225,1.211,1.938,2.866,1.938,4.636c0,3.623-2.949,6.57-6.575,6.57
					c-3.619,0-6.564-2.947-6.564-6.57c0-1.77,0.709-3.423,1.926-4.632v-31.92l-16.09,38.901L77.961,105.736z M88.37,80.981
					l-0.256,0.133c-0.072,0.038-0.309,0.184-0.309,0.486c0,0.314,0.254,0.57,0.564,0.57c0.317,0,0.575-0.256,0.575-0.57
					c0-0.297-0.244-0.447-0.319-0.486L88.37,80.981z"/>
			</g>
			<g>
				<path d="M93.174,28h-9.508L60.764,83.328l13.117,27.894h28.979l13.127-27.877L93.174,28z M100.756,107.946H76.063L64.361,83.24
					l21.451-51.864h0.919v46.285c-1.14,0.592-1.926,1.771-1.926,3.149c0,1.971,1.595,3.568,3.564,3.568s3.575-1.598,3.575-3.568
					c0-1.379-0.797-2.558-1.938-3.149V31.376h0.918L112.4,83.245L100.756,107.946z"/>
				<path d="M103.177,111.722H73.563L60.218,83.341L83.332,27.5h10.177l0.127,0.31l22.896,55.548L103.177,111.722z M74.198,110.722
					h28.344l12.898-27.39L92.839,28.5H84L61.311,83.315L74.198,110.722z M101.073,108.446H75.746L63.814,83.254l0.085-0.205
					l21.579-52.173h1.753v47.088l-0.27,0.14c-1.021,0.53-1.656,1.567-1.656,2.706c0,1.692,1.375,3.068,3.064,3.068
					c1.696,0,3.075-1.376,3.075-3.068c0-1.135-0.639-2.172-1.668-2.706l-0.27-0.14V30.876h1.752l21.688,52.382L101.073,108.446z
					 M76.379,107.446h24.06l11.415-24.214L90.592,31.876h-0.084V77.37c1.203,0.741,1.938,2.033,1.938,3.44
					c0,2.243-1.828,4.068-4.075,4.068c-2.241,0-4.064-1.825-4.064-4.068c0-1.41,0.73-2.702,1.926-3.44V31.876h-0.084l-21.239,51.35
					L76.379,107.446z"/>
			</g>
		</g>
		<g>
			<rect x="63.319" y="105.221" width="50.112" height="12"/>
			<path d="M113.932,117.721H62.819v-13h51.112V117.721z M63.819,116.721h49.112v-11H63.819V116.721z"/>
		</g>
	</g>
	<line stroke="#000000" stroke-width="8" stroke-miterlimit="10" x1="0" y1="27.5" x2="176.75" y2="27.5"/>
</g>
</svg>
