<?xml version="1.0" encoding="utf-8"?>
<!-- Generator: Adobe Illustrator 15.1.0, SVG Export Plug-In . SVG Version: 6.00 Build 0)  -->
<!DOCTYPE svg PUBLIC "-//W3C//DTD SVG 1.1//EN" "http://www.w3.org/Graphics/SVG/1.1/DTD/svg11.dtd">
<svg version="1.1" id="Layer_1" xmlns="http://www.w3.org/2000/svg" xmlns:xlink="http://www.w3.org/1999/xlink" x="0px" y="0px"
	 width="30px" height="30px" viewBox="0 0 30 30" enable-background="new 0 0 30 30" xml:space="preserve">
<g>
	<polygon fill="#FEDA00" points="15,29.41 11.609,29.41 11.609,14.152 15,17.543 	"/>
</g>
<g>
	<polygon fill="#404040" points="25.173,14.152 1.438,14.152 4.828,10.762 21.781,10.762 	"/>
</g>
<g>
	<g>
		<polygon fill="#FFE000" points="-18.07,7.402 -41.805,7.402 -38.415,4.012 -21.461,4.012 		"/>
	</g>
</g>
<g>
	<g>
		<path fill="#404040" d="M28.563,29.41h-3.39V6.052c0-1.143-0.931-2.072-2.073-2.072h-6.028C15.929,3.98,15,4.91,15,6.052v4.709
			l-3.391-3.391V6.052c0-3.767,1.695-5.462,5.462-5.462H23.1c3.768,0,5.463,1.695,5.463,5.462V29.41z"/>
	</g>
</g>
</svg>
