<?xml version="1.0" encoding="utf-8"?>
<!DOCTYPE svg PUBLIC "-//W3C//DTD SVG 1.1//EN" "http://www.w3.org/Graphics/SVG/1.1/DTD/svg11.dtd">
<svg version="1.1" id="Layer_1" xmlns="http://www.w3.org/2000/svg" xmlns:xlink="http://www.w3.org/1999/xlink" x="0px" y="0px"
	 width="50px" height="50px" viewBox="0 0 50 50" enable-background="new 0 0 50 50" xml:space="preserve">
<path fill="#777" d="M47.152,1.535h-13.82c-0.436,0-0.789,0.354-0.789,0.789v21.735L18.121,1.894
	c-0.146-0.224-0.394-0.359-0.661-0.359h-0.411H3.229c-0.436,0-0.789,0.354-0.789,0.789v45.633c0,0.436,0.353,0.788,0.789,0.788
	h13.82c0.435,0,0.788-0.353,0.788-0.788V25.488l15.387,22.909c0.146,0.218,0.393,0.349,0.655,0.349h13.272
	c0.036,0,0.073-0.003,0.109-0.008c0.009-0.001,0.016-0.003,0.024-0.005c0.028-0.005,0.057-0.01,0.084-0.019
	c0.002,0,0.004-0.001,0.006-0.001c0.007-0.002,0.014-0.006,0.02-0.008c0.029-0.01,0.059-0.021,0.086-0.033
	c0.013-0.006,0.025-0.013,0.037-0.019c0.022-0.013,0.045-0.025,0.066-0.039c0.012-0.008,0.023-0.016,0.035-0.024
	c0.021-0.016,0.04-0.032,0.06-0.05c0.01-0.009,0.021-0.017,0.029-0.026c0.022-0.022,0.043-0.047,0.063-0.072
	c0.004-0.005,0.009-0.01,0.013-0.015c0.021-0.029,0.042-0.061,0.06-0.094c0.001-0.002,0.002-0.004,0.003-0.006
	c0.005-0.009,0.008-0.018,0.013-0.027c0.013-0.026,0.024-0.053,0.034-0.08c0.004-0.013,0.008-0.026,0.012-0.039
	c0.007-0.024,0.014-0.05,0.019-0.075c0.003-0.015,0.005-0.028,0.007-0.043c0.004-0.026,0.006-0.053,0.007-0.08
	c0-0.009,0.002-0.017,0.002-0.025V2.324C47.94,1.888,47.587,1.535,47.152,1.535z M16.26,22.899v24.269H4.018V3.112H16.26V22.899z
	 M34.3,47.168L17.837,22.659V4.351l14.833,22.797l13.026,20.021H34.3z M46.363,45.299L34.121,26.483V3.112h12.242V45.299z"/>
</svg>
