<?xml version="1.0" encoding="utf-8"?>
<!-- Generator: Adobe Illustrator 15.1.0, SVG Export Plug-In . SVG Version: 6.00 Build 0)  -->
<!DOCTYPE svg PUBLIC "-//W3C//DTD SVG 1.1//EN" "http://www.w3.org/Graphics/SVG/1.1/DTD/svg11.dtd">
<svg version="1.1" id="Layer_1" xmlns="http://www.w3.org/2000/svg" xmlns:xlink="http://www.w3.org/1999/xlink" x="0px" y="0px"
	 width="30px" height="30px" viewBox="50 0 30 30" enable-background="new 50 0 30 30" xml:space="preserve">
<rect x="-32.167" y="-88" fill="#0A0B0F" width="48.333" height="45.334"/>
<g>
	<g>
		<polygon fill="#FEC901" points="15,29.41 11.609,29.41 11.609,14.152 15,17.543 		"/>
	</g>
</g>
<g>
	<g>
		<path fill="#0A0B0F" d="M28.563,29.41h-3.39V6.052c0-1.143-0.931-2.072-2.073-2.072h-6.027C15.93,3.98,15,4.91,15,6.052v4.709
			L11.609,7.37V6.052c0-3.767,1.695-5.462,5.461-5.462H23.1c3.769,0,5.463,1.695,5.463,5.462V29.41z"/>
	</g>
</g>
<image overflow="visible" enable-background="new    " width="601" height="451" xlink:href="127FD8D3.jpg"  transform="matrix(0.9983 0 0 0.9978 123.3389 -232.0137)">
</image>
<path fill="none" stroke="#0A0B0F" stroke-width="3" stroke-miterlimit="10" d="M5.096,18.051c-1.583,0-2.667-0.916-2.667-2.748
	c0-1.333,0.917-2.833,2.833-2.833c1.25,0,18.917,0,18.917,0"/>
<g>
	<g>
		<polygon fill="#FEC901" points="-22.5,29.41 -25.891,29.41 -25.891,14.152 -22.5,17.543 		"/>
	</g>
</g>
<g>
	<g>
		<polygon fill="#0A0B0F" points="-12.327,14.152 -36.062,14.152 -32.671,10.762 -15.718,10.762 		"/>
	</g>
</g>
<g>
	<g>
		<path fill="#0A0B0F" d="M-8.937,29.41h-3.39V6.052c0-1.143-0.931-2.072-2.073-2.072h-6.027c-1.143,0-2.072,0.93-2.072,2.072v4.709
			l-3.391-3.391V6.052c0-3.767,1.695-5.462,5.461-5.462h6.029c3.769,0,5.463,1.695,5.463,5.462V29.41z"/>
	</g>
</g>
<path fill="none" stroke="#FFFFFF" stroke-width="2" stroke-miterlimit="10" d="M-34.333,17.791c-1.167,0-2.667-1.416-2.667-2.75
	c0-1.333,1.583-2.833,2.833-2.833s18.917,0,18.917,0"/>
<polyline fill="none" stroke="#C2FF7F" stroke-miterlimit="10" points="33.876,19.605 33.876,17.918 37.584,17.918 "/>
<path fill="none" stroke="#C2FF7F" stroke-miterlimit="10" d="M36.23,18.109c0,0.396,0,3.559,0,3.746
	c0,0.441-0.188,0.667-0.542,0.667s-1.979,0-2.167,0s-0.563-0.125-0.563-0.438s0-1.73,0-1.959s0.168-0.354,0.459-0.354
	s3.937,0,4.166,0s0.813,0.25,0.813,0.646s0,2.667,0,2.938s-0.249,0.708-0.541,0.708s-4.221,0-4.465,0s-0.744,0.084-0.744,0.459
	s0.271,1,0.646,1s4.833,0,4.833,0"/>
<g>
	<path fill="#FEC901" d="M60.514,15.681c0.047,0.007,0.115,0.016,0.21,0.016h4.399c0.063,0,0.106-0.002,0.139-0.007
		c0.014-0.067,0.029-0.195,0.029-0.415v-3.297h-4.777V15.681z"/>
	<rect x="62.375" y="8.213" fill="#FEC901" width="2.916" height="1.901"/>
	<path fill="#FEC901" d="M74.512,4.11L65,0.648L55.488,4.11l-5.062,8.766l1.758,9.968l7.754,6.507h10.123l7.754-6.507l1.758-9.968
		L74.512,4.11z M68.972,10.114c2.133,0,2.581,1.22,2.581,2.242v5.962c0,1.232-0.246,2.371-2.03,2.371h-8.634
		c-0.479,0-0.578,0.189-0.578,0.476c0,0.314,0.098,0.621,0.38,0.621c0,0,9.16,0,10.069,0c1.057,0,1.057,1.864,0,1.864
		c-1.06,0-10.069,0-10.069,0c-1.507,0-2.243-1.284-2.243-2.485c0-1.377,1.004-2.34,2.441-2.34h8.634
		c0.058,0,0.105-0.001,0.143-0.005c0.014-0.096,0.024-0.251,0.024-0.502v-5.962c0-0.209-0.035-0.278-0.038-0.283
		c-0.005,0-0.144-0.096-0.68-0.096h-1.817v3.297c0,1.517-0.684,2.285-2.031,2.285h-4.399c-1.53,0-2.073-0.979-2.073-1.818v-3.978
		c0-0.82,0.575-1.648,1.861-1.649V6.35h9.72l1.321,1.863h-4.398v1.901H68.972z"/>
</g>
</svg>
